<svg
   xmlns:svg="http://www.w3.org/2000/svg"
   xmlns="http://www.w3.org/2000/svg"
   version="1.0"
   width="225"
   height="150"
   id="svg2">
  <defs
     id="defs8" />
  <rect
     width="112.5"
     height="150"
     x="0"
     y="0"
     style="fill:#e3e3e3;fill-opacity:1;stroke:none;stroke-width:0.81400001;stroke-miterlimit:10;stroke-dasharray:none;stroke-opacity:1"
     id="rect1874" />
  <rect
     width="112.5"
     height="150"
     x="112.5"
     y="0"
     style="fill:#bbb;fill-opacity:1;stroke:none;stroke-width:0.81400001;stroke-miterlimit:10;stroke-dasharray:none;stroke-opacity:1"
     id="rect1872" />
  <path
     d="M 123.87,114.14 C 123.87,120.13 118.77,125 112.48,125 C 106.2,125 101.09,120.13 101.09,114.14 C 101.09,108.15 106.2,103.28 112.48,103.28 C 118.77,103.28 123.87,108.15 123.87,114.14 z M 113.25,25 L 114.59,25 C 122.11,25 128.39,27 133.4,30.97 C 138.46,34.94 141,40.21 141,46.78 C 141,51.28 140.07,55.09 138.22,58.22 C 136.41,61.31 133.17,64.96 128.53,69.16 C 123.93,73.35 120.95,76.81 119.56,79.59 C 118.17,82.37 117.47,85.41 117.47,88.72 C 117.47,89.42 117.79,91.28 118.44,94.28 L 105.12,94.28 L 103.81,90.91 C 103.07,88.96 102.69,87.27 102.69,85.81 C 102.69,83.03 103.09,80.37 103.87,77.81 C 104.71,75.25 105.92,72.86 107.5,70.66 C 109.08,68.41 112.2,64.83 116.84,59.94 C 121.53,55.04 123.87,51.02 123.87,47.84 C 123.87,41.67 119.62,38.56 111.12,38.56 C 106.99,38.56 102.69,40.54 98.19,44.47 L 91,31.69 C 96.71,27.44 104.13,25.2 113.25,25 z "
     style="fill:white;fill-opacity:1;fill-rule:nonzero;stroke:none;stroke-width:3.5;stroke-linecap:round;stroke-linejoin:miter;stroke-miterlimit:4;stroke-dashoffset:0;stroke-opacity:1"
     id="path5023" />
</svg>
