<svg xmlns="http://www.w3.org/2000/svg" xmlns:xlink="http://www.w3.org/1999/xlink" fill="#000000"
    version="1.1" id="Layer_1" viewBox="0 0 260 214" enable-background="new 0 0 260 214"
    xml:space="preserve">
    <path
        d="M258,105.681l-3.841,13.29l-15.339-8.169l14.289-9.808L258,105.681z M250.702,49.524l-0.589-15.826l-22.407,3.713  l-15.211-8.835l-26.991,2.074l-34.442-15.416l-27.682-1.383l-7.964-4.2l-18.924,2.996L62.946,6.808L46.634,9.292L34.163,2.071  L21.871,5.938L2,18.666l10.294,10.525L9.016,34.21l4.404,12.292l8.271-2.33l3.047,9.27l29.987-1.741l1.178,16.85l-7.068,6.504  l-5.813,36.619l-10.883-0.179l11.498,18.438l-8.732,14.98l8.425,7.017l-13.06,16.543l2.049,10.192l11.216,1.152l14.084,7.58  l-4.481,3.969l5.608,12.24l11.805,8.323l7.99-7.682l18.694-11.293l50.678-1.639l8.937-16.543l15.288-5.147l8.169-21.382  l15.185-11.319l-5.634-3.764l-6.786-16.824l25.249-42.278l21.434-7.605L250.702,49.524z" />
    <script xmlns="" />
</svg>